<?xml version='1.0' encoding='UTF-8' standalone='no'?>
<svg viewBox="0 0 140.62501 140.625" xmlns:rdf="http://www.w3.org/1999/02/22-rdf-syntax-ns#" xmlns:cc="http://creativecommons.org/ns#" version="1.1" inkscape:export-ydpi="192" width="150" xmlns:svg="http://www.w3.org/2000/svg" height="150" xmlns:dc="http://purl.org/dc/elements/1.1/" id="svg34" xml:space="preserve" inkscape:export-filename="/media/rabi/Disco Duro/Campoverde/logo_ov.png" xmlns:sodipodi="http://sodipodi.sourceforge.net/DTD/sodipodi-0.dtd" inkscape:version="1.3 (0e150ed6c4, 2023-07-21)" xmlns:inkscape="http://www.inkscape.org/namespaces/inkscape" sodipodi:docname="logo_ov_visited.svg" inkscape:export-xdpi="192" xmlns="http://www.w3.org/2000/svg">
 <metadata id="metadata40">
  <rdf:RDF>
   <cc:Work rdf:about="">
    <dc:format>image/svg+xml</dc:format>
    <dc:type rdf:resource="http://purl.org/dc/dcmitype/StillImage"/>
   </cc:Work>
  </rdf:RDF>
 </metadata>
 <defs id="defs38">
  <inkscape:path-effect vertical_mirror="true" horizontal_mirror="false" down_left_point="29.567431,120.07944" id="path-effect5" deform_type="perspective" is_visible="true" lpeversion="1" effect="perspective-envelope" down_right_point="116.08296,120.07944" overflow_perspective="false" up_left_point="29.69384,90.181641" up_right_point="115.95655,90.181641"/>
  <inkscape:path-effect vertical_mirror="true" horizontal_mirror="false" down_left_point="29.567431,120.07944" id="path-effect3" deform_type="perspective" is_visible="true" lpeversion="1" effect="perspective-envelope" down_right_point="116.08296,120.07944" overflow_perspective="false" up_left_point="29.69384,90.181641" up_right_point="115.95655,90.181641"/>
  <inkscape:path-effect vertical_mirror="false" horizontal_mirror="false" down_left_point="38.931671,125.38169" id="path-effect1" deform_type="perspective" is_visible="true" lpeversion="1" effect="perspective-envelope" down_right_point="116.11325,125.38169" overflow_perspective="false" up_left_point="38.931671,95.181673" up_right_point="116.11325,95.181673"/>
  <filter id="filter1" y="-0.12856811" x="-0.044453977" style="color-interpolation-filters:sRGB" height="1.2571362" inkscape:collect="always" width="1.088908">
   <feGaussianBlur id="feGaussianBlur1" inkscape:collect="always" stdDeviation="1.6016498"/>
  </filter>
 </defs>
 <sodipodi:namedview inkscape:window-maximized="1" inkscape:pageopacity="0" inkscape:current-layer="svg34" fit-margin-right="0" guidetolerance="10" inkscape:window-y="36" pagecolor="#ffffff" inkscape:window-height="1044" fit-margin-top="0" bordercolor="#666666" showgrid="false" inkscape:zoom="1.150227" inkscape:cx="-34.251288" objecttolerance="10" id="namedview36" fit-margin-bottom="0" inkscape:showpageshadow="2" inkscape:pageshadow="2" inkscape:window-width="1870" inkscape:deskcolor="#d1d1d1" inkscape:snap-page="true" inkscape:window-x="50" gridtolerance="10" inkscape:cy="249.10784" borderopacity="1" fit-margin-left="0" inkscape:pagecheckerboard="0"/>
 <path id="path1" d="m 72.824219,90.181641 c -1.600313,6.5e-5 -3.158764,0.370027 -4.447726,1.05589 l -35.70923,19.009459 c -3.34997,1.78285 -4.078113,5.19238 -1.624077,7.61512 2.45475,2.42301 7.16151,2.93982 10.511254,1.15389 L 72.824218,102.34749 104.09399,119.016 c 3.35009,1.78689 8.05835,1.27002 10.51321,-1.15389 2.45404,-2.42273 1.7259,-5.83227 -1.62407,-7.61512 L 77.273897,91.237531 c -1.2895,-0.686149 -2.848698,-1.056126 -4.449678,-1.05589 z" transform="matrix(1.286949,0,0,1.286949,-9.7126075,-24.810463)" inkscape:original-d="m 72.824219,90.181641 a 7.50075,7.50075 0 0 0 -4.447266,1.460937 L 32.746094,117.89258 a 7.5,7.5 0 0 0 -1.589844,10.48828 7.5,7.5 0 0 0 10.486328,1.58789 l 31.181641,-22.97266 31.181641,22.97266 a 7.5,7.5 0 0 0 10.48828,-1.58789 7.5,7.5 0 0 0 -1.58984,-10.48828 L 77.273437,91.642578 a 7.50075,7.50075 0 0 0 -4.449218,-1.460937 z" style="color:#000000;font-variation-settings:normal;opacity:0.7;vector-effect:none;fill:#00007f;fill-opacity:1;fill-rule:evenodd;stroke-width:1;stroke-linecap:butt;stroke-linejoin:round;stroke-miterlimit:4;stroke-dasharray:none;stroke-dashoffset:0;stroke-opacity:1;-inkscape-stroke:none;paint-order:markers stroke fill;filter:url(#filter1);stop-color:#000000;stop-opacity:1" inkscape:path-effect="#path-effect3"/>
 <path id="path3" d="m 72.824219,90.181641 c -1.600313,6.5e-5 -3.158764,0.370027 -4.447726,1.05589 l -35.70923,19.009459 c -3.34997,1.78285 -4.078113,5.19238 -1.624077,7.61512 2.45475,2.42301 7.16151,2.93982 10.511254,1.15389 L 72.824218,102.34749 104.09399,119.016 c 3.35009,1.78689 8.05835,1.27002 10.51321,-1.15389 2.45404,-2.42273 1.7259,-5.83227 -1.62407,-7.61512 L 77.273897,91.237531 c -1.2895,-0.686149 -2.848698,-1.056126 -4.449678,-1.05589 z" transform="matrix(1.286949,0,0,1.286949,-9.7126075,-29.636521)" inkscape:original-d="m 72.824219,90.181641 a 7.50075,7.50075 0 0 0 -4.447266,1.460937 L 32.746094,117.89258 a 7.5,7.5 0 0 0 -1.589844,10.48828 7.5,7.5 0 0 0 10.486328,1.58789 l 31.181641,-22.97266 31.181641,22.97266 a 7.5,7.5 0 0 0 10.48828,-1.58789 7.5,7.5 0 0 0 -1.58984,-10.48828 L 77.273437,91.642578 a 7.50075,7.50075 0 0 0 -4.449218,-1.460937 z" style="color:#000000;opacity:1;fill:#ffffff;fill-rule:evenodd;stroke:#000000;stroke-width:0.46875;stroke-linecap:round;stroke-linejoin:round;-inkscape-stroke:none;paint-order:markers stroke fill; fill-opacity:1" inkscape:path-effect="#path-effect5"/>
 <path id="path9" d="m 34.381371,0.40775225 c -2.395679,0.04086 -4.788068,0.252592 -7.154297,0.62890705 0.435209,-0.0530401 -1.012095,0.159996 -1.336439,0.236101 -7.333084,1.377315 -14.334296,4.656274 -19.9252792,9.6213207 0.317505,-0.04792 -0.3117669,0.180181 -0.6869313,0.541642 -2.4597249,2.151678 -3.6795147,5.635468 -3.000097,8.844438 0.5988868,3.295689 3.1410279,6.132628 6.3415005,7.115371 2.695969,0.885066 5.760607,0.412098 8.107246,-1.171374 4.037593,-2.911979 8.805626,-4.881126 13.793887,-5.264226 6.047472,-0.537475 12.198212,0.751385 17.608457,3.477117 -5.227943,9.679217 -6.189408,21.496647 -2.756831,31.932069 4.243601,13.139962 15.537454,23.726908 28.933234,27.089988 10.936213,2.82668 23.033537,1.09265 32.583359,-5.00057 9.103,-5.73915 15.93633,-15.079591 18.30473,-25.61021 1.66534,-7.274148 1.34404,-14.993967 -0.91215,-22.10659 1.50486,-2.372171 2.95063,-4.792529 4.49219,-7.134765 1.26838,-1.111408 3.11543,-0.90538 4.52544,-1.756864 3.52972,-1.667884 5.70673,-5.728098 5.1458,-9.592275 -0.4364,-3.8427877 -3.51726,-7.2031727 -7.31633,-7.9489387 -2.18654,-0.424686 -4.43635,-0.150907 -6.65062,-0.229267 -6.66013,0.01871 -13.32555,-0.03742 -19.98239,0.02808 -1.31434,0.215279 -2.55093,0.79256 -3.64378,1.544188 -7.683979,-3.297431 -16.374853,-4.182233 -24.556322,-2.436533 -4.587312,0.952038 -9.002545,2.71542 -12.998361,5.159188 C 57.937648,5.1528223 52.064146,2.7759443 45.929394,1.5302753 42.136605,0.73337525 38.25701,0.35142825 34.381371,0.40775225 Z M 83.135278,24.778846 c 2.298796,0.111414 4.586952,0.588617 6.710937,1.482422 -1.230469,1.577474 -2.460937,3.154947 -3.691406,4.732422 -1.303177,-2.157035 -2.733017,-4.236453 -4.263672,-6.238282 0.414799,-0.01442 0.829435,0.01583 1.244141,0.02344 z m 0.01953,33.039062 c 0.67615,0.05797 1.364856,0.108827 2.041015,0.03125 -0.817708,1.307291 -1.635416,2.614583 -2.453124,3.921875 0.111613,-1.32774 0.182748,-2.658679 0.228515,-3.990235 l 0.09802,0.01981 z" style="color:#000000;opacity:0.7;fill:#00007f;stroke-linejoin:round;-inkscape-stroke:none;filter:url(#filter1); fill-opacity:1"/>
 <path id="path8" d="m 33.598167,0.00638525 c -2.304531,0.03857 -4.602258,0.242337 -6.88086,0.607422 a 7.5007505,7.5007505 0 0 0 -0.0059,0 C 18.949172,1.8647563 11.989373,5.0776593 6.3950007,10.043495 c -0.02391,0.01688 -0.050331,0.02799 -0.074219,0.04492 l 0.00781,0.0098 c -0.2623659,0.234002 -0.5641651,0.416142 -0.8202687,0.65817 a 7.5007505,7.5007505 0 0 0 9.488281,11.570313 c 5.342197,-3.787041 10.770306,-5.561122 17.013672,-5.632813 6.177484,-0.07094 12.010165,1.445966 17.908203,4.69336 -3.538528,5.960739 -5.482422,12.733448 -5.482422,19.886718 0,10.575609 4.095634,20.373064 11.601563,27.833985 7.523688,7.477758 17.367266,11.517578 27.978515,11.517578 10.611308,0 20.448575,-4.04338 27.958985,-11.523438 7.50377,-7.461048 11.5924,-17.251854 11.60742,-27.818359 a 7.5007505,7.5007505 0 0 0 0,-0.0293 c -0.0113,-4.519255 -0.72105,-8.910429 -2.14843,-13.033203 l 5.00586,-8.009766 c 0.82436,-0.821968 1.71074,-1.353015 3.35742,-1.667968 A 7.5007505,7.5007505 0 0 0 128.38918,3.6782573 h -24.48437 a 7.5007505,7.5007505 0 0 0 -3.54688,1.871094 c -5.069105,-2.294119 -10.563294,-3.615234 -16.341795,-3.615234 -7.793691,0 -15.139904,2.23971 -21.482421,6.357422 -3.570548,-2.160228 -7.276696,-4.071177 -11.25586,-5.417969 -5.092502,-1.72757 -10.244061,-2.69324605 -15.373047,-2.84961005 -0.760994,-0.0231999957 -1.52944,-0.03059 -2.30664,-0.01758 z M 81.40676,20.598182 c 0.31204,0.0026 0.643439,0.01218 0.994141,0.0293 a 7.5007505,7.5007505 0 0 0 0.002,0 c 3.570849,0.173095 6.653841,1.081212 9.560547,2.679688 l -6.822266,8.746093 c -2.216519,-3.996765 -4.781535,-7.703068 -7.693359,-11.105468 1.226964,-0.221692 2.518566,-0.361543 3.958984,-0.34961 z M 63.471214,39.051307 c 0.781534,2.587046 1.405493,5.285093 1.695312,8.22461 -1.001298,-2.370512 -1.576379,-4.883911 -1.708984,-7.695313 a 7.5007505,7.5007505 0 0 0 0,-0.01172 c -0.0091,-0.186288 0.01913,-0.335179 0.01367,-0.517578 z m 26.40625,11.314453 -9.363282,14.966797 c -0.377868,-0.04522 -0.794319,-0.03499 -1.162109,-0.0957 0.138377,-0.893093 0.282482,-1.785585 0.400391,-2.681641 a 7.5007505,7.5007505 0 0 0 0.0039,-0.03711 c 0.409832,-3.240018 0.578901,-6.394461 0.601562,-9.494141 a 7.5007505,7.5007505 0 0 0 9.001953,-1.99414 z m -12.699219,9.855469 c 0.939797,0.977419 1.457493,2.181453 1.447265,2.158203 -0.0091,-0.02066 -0.593855,-1.116357 -1.398437,-2.046875 a 7.5007505,7.5007505 0 0 0 -0.04883,-0.111328 z" style="color:#000000;fill:#ffffff;stroke-linejoin:round;-inkscape-stroke:none;stroke:#000000;stroke-width:0.46875002; fill-opacity:1"/>
 <g id="g5" inkscape:label="logo" transform="matrix(0.89699199,0,0,0.89699199,6.4542011,-22.756967)" style="display:inline">
  <path id="path2" d="m 111.73866,46.26886 c -0.35229,-0.338078 -0.7043,-0.676155 -1.0566,-1.000296 -6.76098,-6.254009 -14.832176,-9.380875 -24.213329,-9.380875 -9.099097,0 -16.972978,2.929816 -23.607429,8.803384 a 45.094419,45.094419 0 0 1 2.281812,1.775114 c 5.493405,-4.67678 12.14207,-6.831499 19.931501,-6.451337 8.423222,0.408313 15.789835,3.648335 22.100145,9.747102 a 9.0915717,9.0915717 0 0 1 0.52119,0.52119 c 3.42285,3.422579 5.98644,7.155641 7.7047,11.198074 1.50727,3.563607 2.36626,7.38084 2.56387,11.423552 0.40831,8.662356 -2.29631,15.916661 -8.12723,21.762358 -5.5079,5.507344 -12.282806,8.225894 -20.297715,8.155384 -0.478827,0 -0.957653,-0.0139 -1.450973,-0.0421 -5.549705,-0.26756 -10.634797,-1.7609 -15.268656,-4.479174 C 70.213993,96.765545 67.763003,94.836025 65.453041,92.526064 59.029854,86.103155 55.607276,78.553137 55.198685,69.890502 54.804587,61.805079 57.142419,54.945708 62.199362,49.325489 a 54.414255,54.414255 0 0 0 -2.028463,-2.014248 c -6.31003,6.718621 -9.465602,14.747744 -9.465602,24.072319 0,9.80368 3.493371,18.170323 10.46562,25.100765 6.986742,6.944095 15.423898,10.409045 25.297814,10.409045 9.874193,0 18.297399,-3.46495 25.269929,-10.409323 6.97225,-6.930164 10.46562,-15.296807 10.47955,-25.100766 -0.0139,-5.59179 -1.14076,-10.705033 -3.3947,-15.353106 -1.71854,-3.521521 -4.08452,-6.7752 -7.08485,-9.761315" inkscape:connector-curvature="0" style="fill:#009900;stroke-width:0.278712"/>
  <path id="path5" d="m 32.578126,33.753663 c -2.907824,-0.08865 -5.796298,0.09708 -8.664551,0.556641 -7.690759,1.239429 -14.0989018,4.282412 -19.2260748,9.127808 7.2122118,-5.112681 15.1142758,-7.71994 23.7066658,-7.818604 8.592112,-0.09866 16.860478,2.113497 24.79065,6.621094 2.549373,1.450972 4.886778,3.140394 6.985474,5.070191 a 54.414255,54.414255 0 0 1 2.028809,2.01416 c 3.436789,3.704073 6.15592,8.141268 8.170166,13.339234 3.535454,9.099088 4.549087,19.551278 3.056031,31.354981 a 123.72146,123.72146 0 0 1 -0.633545,4.238892 c 0.01394,0.01394 0.01353,0.02945 0.02746,0.04394 4.634134,2.71828 9.719467,4.21121 15.269166,4.47877 0.49332,0.0284 0.9732,0.0421 1.452026,0.0421 L 115.40039,61.481325 c -1.71825,-4.042429 -4.28195,-7.775877 -7.70507,-11.19873 a 9.0915717,9.0915717 0 0 0 -0.52002,-0.52002 L 85.834354,77.116702 C 82.199958,66.608728 76.806413,57.762296 69.636843,50.564577 A 67.884386,67.884386 0 0 0 65.143435,46.466676 45.094419,45.094419 0 0 0 62.861941,44.690553 C 58.087059,41.126951 52.903819,38.394568 47.283327,36.492921 42.327143,34.811595 37.424499,33.90141 32.578126,33.753663 Z m 76.062014,4.077759 c 1.49305,0.352291 2.53502,1.027367 3.11279,1.999512 0.74639,1.253365 0.54866,2.860521 -0.56396,4.790039 l -0.5072,0.648194 c 0.3523,0.32414 0.70451,0.661679 1.05652,0.999756 3.0006,2.986113 5.36736,6.239835 7.08618,9.761352 l 8.43567,-13.494873 c 2.23944,-2.464923 5.1422,-4.027826 8.67736,-4.70398 z" style="fill:#000099;stroke-width:0.278712"/>
 </g>
 <rect id="rect1" y="63.181561" x="3.0915427" style="opacity:1;fill:#008000;fill-rule:evenodd;stroke:none;stroke-width:0.47386;stroke-linejoin:round;-inkscape-stroke:none;paint-order:markers stroke fill" height="37.5" width="37.5"/>
 <path id="path4" sodipodi:nodetypes="ccc" d="m 8.6642894,80.859901 8.6496866,12.39148 C 22.685967,82.713673 28.876,74.010048 35.946438,67.280331" style="opacity:1;fill:none;fill-rule:evenodd;stroke:#ffffff;stroke-width:7.08661;stroke-linejoin:round;-inkscape-stroke:none;paint-order:markers stroke fill"/>
</svg>
