<?xml version='1.0' encoding='UTF-8' standalone='no'?>
<svg sodipodi:docname="logoCV.svg" xmlns:inkscape="http://www.inkscape.org/namespaces/inkscape" xmlns:sodipodi="http://sodipodi.sourceforge.net/DTD/sodipodi-0.dtd" id="svg26" version="1.1" inkscape:version="1.3 (0e150ed6c4, 2023-07-21)" xmlns:svg="http://www.w3.org/2000/svg" height="150" xmlns="http://www.w3.org/2000/svg" width="250" viewBox="0 0 234.37501 140.625" inkscape:export-filename="../../2022/09 Septiembre/Ferpy/logo.png" inkscape:export-xdpi="96" inkscape:export-ydpi="96">
 <defs id="defs30">
  <filter id="filter2" y="-0.046016624" x="-0.021036864" style="color-interpolation-filters:sRGB" height="1.0916411" inkscape:collect="always" width="1.0420509">
   <feGaussianBlur id="feGaussianBlur2" inkscape:collect="always" stdDeviation="1.246589"/>
  </filter>
 </defs>
 <sodipodi:namedview inkscape:window-maximized="1" inkscape:pageopacity="0.0" inkscape:current-layer="svg26" inkscape:window-y="32" pagecolor="#ffffff" inkscape:window-height="1048" bordercolor="#000000" showgrid="false" inkscape:zoom="0.36183981" inkscape:cx="212.80135" inkscape:showpageshadow="2" id="namedview28" inkscape:deskcolor="#d1d1d1" inkscape:window-width="1920" inkscape:window-x="0" inkscape:cy="411.78444" borderopacity="0.25" inkscape:pagecheckerboard="0"/>
 <path id="path1" inkscape:label="logosombra" d="m 86.053997,24.342102 c -1.686818,-0.0065 -3.40725,0.08209 -5.163574,0.267334 -6.390762,0.66494 -11.14385,2.567781 -14.024048,5.961915 a 1.4063906,1.4063906 0 0 0 1.851196,2.081909 c 4.647766,-3.089328 9.806201,-4.621582 15.642701,-4.621582 6.204015,0 11.678476,1.725211 16.552738,5.207519 0.002,0.0014 0.004,0.0023 0.005,0.0037 l 1.38611,1.06018 c 0.68663,0.547467 1.34204,1.184292 2.00317,1.809082 -1.32981,1.695578 -2.4937,3.515265 -3.34717,5.498658 a 1.4063906,1.4063906 0 0 0 -0.002,0.0055 c -0.79714,1.865279 -1.372179,3.81595 -1.715698,5.813599 a 1.4063906,1.4063906 0 0 0 -0.0018,0.01465 c -0.08026,0.495673 -0.06397,1.000387 -0.117188,1.499634 -0.246109,-0.278573 -0.389788,-0.615239 -0.682983,-0.862427 -1.592417,-1.34359 -3.598735,-2.029911 -5.771485,-2.001343 h -9.673462 a 1.4063906,1.4063906 0 0 0 -0.04028,0.03845 1.4063906,1.4063906 0 0 0 -0.03845,-0.03845 h -6.11023 a 1.4063906,1.4063906 0 0 0 -1.261597,0.781861 L 68.984905,60.109926 62.334514,46.85492 a 1.4063906,1.4063906 0 0 0 -1.256103,-0.774536 h -6.187134 a 1.4063906,1.4063906 0 0 0 -1.40625,1.40625 v 0.6427 a 1.4063906,1.4063906 0 0 0 1.40625,1.40625 h 0.142822 c 0.76897,0.02077 1.160653,0.199062 1.322022,0.336915 0.161369,0.137852 0.266078,0.283892 0.274658,0.823974 v 13.38501 c -0.07765,0.828664 -0.283384,1.332813 -0.454102,1.550904 -0.171871,0.219564 -0.275981,0.287383 -0.682983,0.309448 h -0.239868 a 1.4063906,1.4063906 0 0 0 -0.02564,0.02563 C 54.658121,65.84037 54.276147,65.634256 53.966589,65.405331 l -8.99414,-18.757325 a 1.4063906,1.4063906 0 0 0 -1.268921,-0.79834 h -0.800171 a 1.4063906,1.4063906 0 0 0 -1.257935,0.776368 l -0.38269,0.76538 h 0.842285 a 1.4063906,1.4063906 0 0 0 -1.272583,0.807496 l -6.30066,13.405151 a 1.4063906,1.4063906 0 0 0 -0.734252,0.349732 l -1.124268,1.296386 c -1.463665,1.455151 -3.070539,2.201809 -5.097656,2.336426 h -0.0018 l -0.633545,0.01831 c -1.762059,-0.0017 -3.112148,-0.662167 -4.42566,-2.259522 a 1.4063906,1.4063906 0 0 0 -0.0055,-0.0073 c -1.305119,-1.564492 -1.942749,-3.428619 -1.942749,-5.755005 0,-2.321509 0.630641,-4.157323 1.950073,-5.786133 1.308069,-1.565839 2.693255,-2.237549 4.454957,-2.237549 1.733003,0 3.125323,0.671086 4.434814,2.241211 l 0.0018,0.0018 c 0.619244,0.755576 1.104066,1.612684 1.433716,2.532349 a 1.4063906,1.4063906 0 0 0 1.228638,0.928345 l 0.717773,0.04944 a 1.4063906,1.4063906 0 0 0 1.495972,-1.543579 l -0.668335,-6.628418 a 1.4063906,1.4063906 0 0 0 -1.398926,-1.265259 h -0.285644 a 1.4063906,1.4063906 0 0 0 -1.289063,0.845947 c -0.137294,0.316396 -0.208988,0.291672 -0.441284,0.300293 -1.679892,-0.74612 -3.498024,-1.170871 -5.452881,-1.171875 -3.42483,-0.02776 -6.500536,1.128701 -8.983155,3.433228 a 1.4063906,1.4063906 0 0 0 -0.01099,0.01099 c -2.426582,2.30327 -3.739014,5.233264 -3.739014,8.496094 0,3.260418 1.316722,6.16974 3.739014,8.470459 a 1.4063906,1.4063906 0 0 0 0.01099,0.01099 c 2.479476,2.300088 5.546791,3.482666 8.974,3.482666 h 0.155639 a 1.4063906,1.4063906 0 0 0 0.02747,0 c 1.506359,-0.02887 2.928695,-0.358321 4.240723,-0.961304 a 1.4063906,1.4063906 0 0 0 0.602417,0.602417 h 6.859131 a 1.4063906,1.4063906 0 0 0 1.40625,-1.40625 v -0.617065 a 1.4063906,1.4063906 0 0 0 -1.2323,-1.395264 c -0.672511,-0.08369 -0.974756,-0.213745 -1.182861,-0.303955 l 1.514282,-3.213501 h 6.829834 l 1.378784,2.898559 c 0.01019,0.11587 0.023,0.216913 -0.01282,0.254517 -0.05043,0.05294 -0.343032,0.248504 -1.021729,0.338745 a 1.4063906,1.4063906 0 0 0 -1.221313,1.395264 v 0.6427 a 1.4063906,1.4063906 0 0 0 1.40625,1.40625 h 8.50708 a 1.4063906,1.4063906 0 0 0 0.140991,-0.142822 1.4063906,1.4063906 0 0 0 0.117188,0.117187 h 7.630005 a 1.4063906,1.4063906 0 0 0 1.40625,-1.40625 v -0.615234 a 1.4063906,1.4063906 0 0 0 -1.327515,-1.404419 c -1.053534,-0.05801 -1.758532,-0.258026 -2.04895,-0.419312 -0.290417,-0.161286 -0.201187,-0.08323 -0.206909,-0.216064 v -8.33313 l 5.925293,11.652832 a 1.4063906,1.4063906 0 0 0 1.386108,0.761719 l 0.541993,-0.05127 A 1.4063906,1.4063906 0 0 0 69.686188,68.56207 L 75.55473,56.746278 v 8.686524 c -0.01333,0.161165 -0.01591,0.151389 -0.377198,0.272827 l -1.627807,0.254516 a 1.4063906,1.4063906 0 0 0 -1.188355,1.38794 v 0.615234 a 1.4063906,1.4063906 0 0 0 1.40625,1.40625 h 8.761597 a 1.4063906,1.4063906 0 0 0 0.411987,-0.413818 1.4063906,1.4063906 0 0 0 0.413819,0.413818 h 8.765259 a 1.4063906,1.4063906 0 0 0 1.40625,-1.40625 v -0.615234 a 1.4063906,1.4063906 0 0 0 -1.192017,-1.38794 l -1.625977,-0.254516 c -0.351695,-0.115333 -0.33696,-0.08348 -0.353393,-0.272827 v -5.075684 a 1.4063906,1.4063906 0 0 0 -0.02563,-0.0238 v -0.24353 l 2.167969,0.296631 a 1.4063906,1.4063906 0 0 0 0.19043,0.01465 c 2.160833,0 4.153346,-0.683268 5.744018,-2.021484 0.41224,-0.340594 0.643471,-0.794459 0.961304,-1.19751 0.765504,3.968961 2.594244,7.550774 5.161744,10.806885 -2.55671,1.393523 -5.015309,2.924351 -7.340699,4.645386 v -1.820069 a 1.4063906,1.4063906 0 0 0 -1.409912,-1.40625 l -59.113771,0.20691 a 1.4063906,1.4063906 0 0 0 -0.0018,0.0018 c -7.003528,-0.02079 -14.011997,1.001644 -21.029664,3.114624 a 1.4063906,1.4063906 0 0 0 -0.939331,1.75415 l 0.825806,2.722779 a 1.4063906,1.4063906 0 0 0 1.746826,0.941162 c 6.944812,-2.060294 12.178209,-3.020629 15.5365,-2.973633 a 1.4063906,1.4063906 0 0 0 0.0037,0 l 6.694336,0.0769 3.519287,0.3479 0.0055,0.0018 c 13.49799,1.872808 25.114823,9.305556 35.053712,22.56958 l 1.358561,1.842101 a 1.4063906,1.4063906 0 0 0 2.378541,-0.184935 l 1.04187,-1.997681 0.0055,-0.01099 c 6.975054,-12.598117 16.434041,-21.508141 28.439948,-26.920167 0.60375,-0.272369 1.20698,-0.535702 1.8164,-0.787354 0.79528,-0.327964 1.60815,-0.640825 2.43164,-0.941162 0.57875,-0.211499 1.15252,-0.418076 1.72669,-0.609741 0.91617,-0.305011 1.85007,-0.588111 2.79968,-0.858765 a 1.4063906,1.4063906 0 0 0 0.002,-0.0018 c 0.49565,-0.141727 0.97536,-0.279985 1.4502,-0.404663 1.09059,-0.285312 2.20734,-0.541619 3.3435,-0.78186 a 1.4063906,1.4063906 0 0 0 0.002,0 c 0.42272,-0.08979 0.81848,-0.181594 1.20118,-0.256348 1.26256,-0.245436 2.55329,-0.456235 3.86718,-0.644531 a 1.4063906,1.4063906 0 0 0 0.002,-0.0018 c 0.31741,-0.04575 0.60628,-0.09372 0.87891,-0.130005 1.44489,-0.191144 2.91732,-0.34599 4.4165,-0.466919 0.21259,-0.01728 0.39506,-0.03574 0.55298,-0.04761 1.62301,-0.120964 3.27649,-0.199304 4.96216,-0.238037 0.12416,-0.0028 0.19888,-0.0085 0.23071,-0.0092 1.69686,-0.0351 3.42879,-0.02432 5.18555,0.0238 l 65.06653,28.150635 c -1.05727,1.824432 -1.81122,3.650017 -1.94092,5.471192 -0.16496,2.316381 0.50651,4.579751 1.90613,6.621091 a 1.4063906,1.4063906 0 0 0 2.5415,-1.05102 c -0.54403,-2.9626 -0.25306,-5.014494 0.56031,-6.300662 0.81337,-1.286169 2.2151,-2.07876 4.69116,-2.321777 a 1.4063906,1.4063906 0 0 0 0.16479,-0.02564 c 0.46123,-0.101339 0.87045,-0.226443 1.26893,-0.443115 0.39847,-0.216673 0.84247,-0.568223 1.06201,-1.157227 0.21953,-0.589004 0.084,-1.24751 -0.14466,-1.675415 -0.22861,-0.427905 -0.52622,-0.731845 -0.86792,-1.030884 a 1.4063906,1.4063906 0 0 0 -0.36438,-0.232544 l -49.6582,-21.584473 h 3.69873 a 1.4063906,1.4063906 0 0 0 1.40625,-1.40625 v -0.6427 a 1.4063906,1.4063906 0 0 0 -1.19202,-1.389771 l -1.62597,-0.250854 c -0.35173,-0.115271 -0.33677,-0.08333 -0.3534,-0.274658 v -4.953003 l 6.39771,8.364258 a 1.4063906,1.4063906 0 0 0 1.11694,0.551147 h 2.73194 0.71228 a 1.4063906,1.4063906 0 0 0 0.0659,0.02747 l 12.24427,-0.02747 a 1.4063906,1.4063906 0 0 0 0.0677,-0.0018 c 2.38134,-0.121751 4.54792,-1.018984 6.38488,-2.537842 a 1.4063906,1.4063906 0 0 0 -0.20507,0.492554 v 0.668335 a 1.4063906,1.4063906 0 0 0 1.41357,1.40625 l 4.99512,-0.02563 a 1.4063906,1.4063906 0 0 0 0.0256,0.02563 h 8.82385 c -0.64163,0.210741 -1.24961,0.51951 -1.74499,1.012573 a 1.4063906,1.4063906 0 0 0 -0.0256,0.02564 c -0.76777,0.802856 -1.21582,1.917561 -1.21582,3.079834 0,1.130624 0.44671,2.233992 1.23963,3.024902 a 1.4063906,1.4063906 0 0 0 0.022,0.02197 c 0.81958,0.779621 1.90424,1.248333 3.03772,1.2854 a 1.4063906,1.4063906 0 0 0 0.0915,0 c 1.13364,-0.03701 2.20676,-0.517481 3.01392,-1.2854 a 1.4063906,1.4063906 0 0 0 0.002,-0.0018 c 0.83124,-0.792914 1.2854,-1.915539 1.2854,-3.045044 0,-1.156938 -0.45447,-2.285489 -1.2561,-3.09082 -0.48031,-0.495411 -1.08253,-0.81317 -1.72486,-1.027222 h 0.23255 a 1.4063906,1.4063906 0 0 0 1.3385,-0.970459 l 1.52161,-4.676514 a 1.4063906,1.4063906 0 0 0 -1.33913,-1.842107 h -0.64453 a 1.4063906,1.4063906 0 0 0 -1.34765,1.003418 l -0.0549,0.186768 c -0.46314,1.269083 -1.00992,1.95761 -1.49048,2.301635 l -1.0492,0.157471 -6.43249,-0.02197 v -6.212768 l 5.06653,-0.02014 c 0.16641,0.141567 0.35363,0.336005 0.3717,1.188355 v 0.151977 a 1.4063906,1.4063906 0 0 0 1.40442,1.40625 h 0.67016 a 1.4063906,1.4063906 0 0 0 1.40625,-1.40625 v -6.602783 a 1.4063906,1.4063906 0 0 0 -1.40625,-1.40625 h -0.67016 a 1.4063906,1.4063906 0 0 0 -1.40625,1.40625 v 0.175781 c -0.0177,0.816317 -0.20681,1.02425 -0.39368,1.192017 l -5.04272,-0.02014 v -5.494995 l 7.05322,-0.02197 c 0.1882,0.169236 0.37605,0.37857 0.39368,1.193848 v 0.175781 a 1.4063906,1.4063906 0 0 0 1.40625,1.40625 h 0.67016 a 1.4063906,1.4063906 0 0 0 1.40625,-1.415405 l -0.0238,-3.777466 a 1.4063906,1.4063906 0 0 0 -1.40625,-1.397095 h -7.08984 a 1.4063906,1.4063906 0 0 0 -0.0256,0.02564 h -9.69543 a 1.4063906,1.4063906 0 0 0 -1.40625,1.40625 v 0.617066 a 1.4063906,1.4063906 0 0 0 0.20507,0.494384 c -1.83863,-1.519164 -4.00825,-2.417348 -6.3977,-2.515869 a 1.4063906,1.4063906 0 0 0 -0.0586,-0.0018 h -12.24426 a 1.4063906,1.4063906 0 0 0 -1.40625,1.40625 v 0.617066 a 1.4063906,1.4063906 0 0 0 1.40625,1.40625 h 0.17395 c 0.90181,0.01963 1.11778,0.217376 1.25427,0.373535 v 15.657349 c -0.13746,0.157528 -0.35385,0.354958 -1.25244,0.373535 h -0.23993 l -4.71131,-6.375733 c 0.649,-0.309301 1.26175,-0.691252 1.8219,-1.149902 0.68466,-0.557608 1.25939,-1.237291 1.69556,-2.005005 0.55492,-0.956441 0.84105,-2.045564 0.82947,-3.151245 -0.003,-2.002424 -0.92065,-3.837585 -2.50672,-5.176392 a 1.4063906,1.4063906 0 0 0 -0.0147,-0.01099 c -1.58848,-1.308268 -3.58679,-1.994803 -5.7843,-1.964722 h -9.64783 a 1.4063906,1.4063906 0 0 0 -0.37353,0.373535 1.4063906,1.4063906 0 0 0 -0.401,-0.39917 h -7.11548 a 1.4063906,1.4063906 0 0 0 -0.0256,0.02564 h -4.95116 c -0.48555,-2.129351 -1.18516,-4.203201 -2.21008,-6.135911 a 1.4063906,1.4063906 0 0 0 -0.24902,-0.336914 l 0.79467,0.792846 3.2135,-5.083008 a 1.4063906,1.4063906 0 0 0 0.002,-0.0055 c 0.94304,-1.499043 3.42376,-3.413988 7.43774,-5.339355 a 1.4063906,1.4063906 0 0 0 -0.60791,-2.67334 h -18.5907 a 1.4063906,1.4063906 0 0 0 -0.82031,2.548828 c 0.63555,0.456243 0.84873,0.839953 0.95398,1.206665 -4.68,-3.517532 -10.10098,-5.396118 -16.21948,-5.396118 -4.90788,0 -9.40069,1.13743 -13.38318,3.42041 a 1.4063906,1.4063906 0 0 0 -0.005,0.0037 c -1.37152,0.795981 -2.61787,1.779651 -3.83606,2.792358 -1.55889,-1.093124 -3.14964,-2.142785 -4.83581,-3.028564 a 1.4063906,1.4063906 0 0 0 -0.0439,-0.02197 l -1.4154,-0.679321 c -0.68302,-0.347428 -1.38472,-0.657025 -2.10205,-0.926514 l -0.007,-0.0018 c -4.404928,-1.76109 -9.153033,-2.650251 -14.211853,-2.669743 z m 36.575313,7.657471 c 0.46694,-0.0015 0.94444,0.01281 1.43189,0.04028 5.19503,0.292761 9.70466,2.182883 13.73474,5.645141 l -12.54272,15.803838 c -2.30292,-5.917965 -5.411,-11.126757 -9.40613,-15.505372 a 1.4063906,1.4063906 0 0 0 -0.0678,-0.06958 l -3.13294,-2.997436 c 0.40921,-0.266387 0.78936,-0.576998 1.22132,-0.805665 a 1.4063906,1.4063906 0 0 0 0.009,-0.0037 c 2.58531,-1.391062 5.46851,-2.096805 8.75244,-2.107544 z m -14.92309,7.853394 c 0.57152,0.704683 1.17718,1.391765 1.69006,2.136841 l 0.65186,0.952148 c 3.68607,5.748564 5.54443,12.363493 5.54443,19.907227 v 0.31128 c -1.70359,0.56018 -3.38367,1.187387 -5.03723,1.880493 -3.69408,-4.045447 -5.69804,-8.585832 -6.02234,-13.809815 v -0.0018 c -0.16731,-3.178931 0.29419,-6.00675 1.36047,-8.510742 0.45011,-1.043599 1.15883,-1.938734 1.81275,-2.865601 z m 65.13062,7.181397 h 0.097 c -0.0166,-8.15e-4 -0.031,0.008 -0.0476,0.0073 -0.0169,2.15e-4 -0.0325,-0.0077 -0.0494,-0.0073 z m -27.63978,1.514282 c 0.52317,1.694148 0.9148,3.441171 1.02723,5.317383 a 1.4063906,1.4063906 0 0 0 0,0.0055 c 0.12095,1.899915 -0.0486,3.631097 -0.38453,5.278931 -2.49445,-0.0597 -4.989,0.01646 -7.48169,0.120849 z m 57.85584,0.637207 a 1.4063906,1.4063906 0 0 0 0.28748,0.119019 h 0.17578 c 0.84451,0.01877 1.0608,0.210822 1.22863,0.384521 v 1.977539 c -0.33688,-0.576 -0.55955,-1.205732 -1.00341,-1.726684 a 1.4063906,1.4063906 0 0 0 -0.011,-0.01282 l -0.51636,-0.591431 a 1.4063906,1.4063906 0 0 0 -0.0476,-0.05127 c -0.0356,-0.03701 -0.0776,-0.06244 -0.11353,-0.09888 z m -37.34802,0.267334 c 0.31209,0.07024 0.65131,0.129468 0.75439,0.236206 v 12.224121 a 1.4063906,1.4063906 0 0 0 -0.65552,-0.212402 h -0.64453 a 1.4063906,1.4063906 0 0 0 -1.34765,1.003418 l -0.0549,0.186768 c -0.47369,1.298078 -1.02705,2.010157 -1.53259,2.345581 -0.20216,0.06289 -0.38894,0.09905 -0.54748,0.09888 l -6.89392,-2.995606 v -3.224487 l 5.06652,-0.02014 c 0.16621,0.141188 0.35275,0.335993 0.36988,1.188355 v 0.151977 a 1.4063906,1.4063906 0 0 0 1.40625,1.40625 h 0.67199 a 1.4063906,1.4063906 0 0 0 1.40625,-1.40625 v -6.602783 a 1.4063906,1.4063906 0 0 0 -1.40625,-1.40625 h -0.67199 a 1.4063906,1.4063906 0 0 0 -1.40625,1.40625 v 0.177612 c -0.0167,0.814623 -0.20569,1.02066 -0.39185,1.188355 l -5.04455,-0.01831 v -5.494995 l 7.05505,-0.02197 c 0.18889,0.169841 0.37607,0.380143 0.39368,1.193848 v 0.175781 a 1.4063906,1.4063906 0 0 0 1.40625,1.40625 h 0.67016 a 1.4063906,1.4063906 0 0 0 1.40625,-1.415405 z m -82.749027,0.04394 a 1.4063906,1.4063906 0 0 0 0.04028,0.03845 h 0.175781 c 0.844007,0.01781 1.058907,0.209434 1.226807,0.384522 v 15.476075 c -0.186387,0.407539 -0.287752,0.519597 -0.758057,0.545654 h -0.285641 a 1.4063906,1.4063906 0 0 0 -0.413819,0.411994 1.4063906,1.4063906 0 0 0 -0.411987,-0.411987 h -0.236206 c -0.520337,-0.02804 -0.60891,-0.117403 -0.805664,-0.562134 V 49.90912 c 0.137187,-0.156689 0.353561,-0.354952 1.252441,-0.373536 h 0.177613 a 1.4063906,1.4063906 0 0 0 0.03845,-0.03845 z m 102.061157,0.223389 c 3.2e-4,4.8e-4 0.004,0.0013 0.004,0.0018 a 1.4063906,1.4063906 0 0 0 0.0513,0.07324 z m 5.75684,0.02197 4.55017,0.168457 c 1.01372,0.361606 1.93017,0.941556 2.76306,1.876831 a 1.4063906,1.4063906 0 0 0 0.002,0 c 1.42761,1.600121 2.1175,3.445733 2.14233,5.744018 -0.0249,2.296808 -0.71671,4.142459 -2.13684,5.712891 a 1.4063906,1.4063906 0 0 0 -0.007,0.0073 c -0.8337,0.936182 -1.7495,1.517711 -2.76489,1.880494 l -4.54834,0.166626 z m -17.97547,0.100716 a 1.4063906,1.4063906 0 0 0 0.0952,0 c 1.04953,-0.02112 1.82665,0.272116 2.55615,0.941162 0.7288,0.668488 1.01257,1.324279 1.01257,2.252197 0,0.6283 -0.16434,1.144696 -0.49804,1.636963 -0.16246,0.219798 -0.31798,0.399516 -0.45594,0.512695 a 1.4063906,1.4063906 0 0 0 -0.0586,0.05127 c -0.72899,0.668575 -1.52806,0.982556 -2.5708,1.010742 -0.17431,-0.0077 -0.34053,-0.06961 -0.5127,-0.09522 v -6.238403 c 0.14613,-0.01272 0.28491,-0.07862 0.43213,-0.07141 z m -91.464842,0.111694 c 2.75e-4,-4.18e-4 0.0034,4.19e-4 0.0037,0 l -0.05493,0.07141 a 1.4063906,1.4063906 0 0 0 0.05127,-0.07141 z m 9.554444,0.100708 c 0.921299,-0.01892 1.814298,0.316712 2.486572,0.948486 a 1.4063906,1.4063906 0 0 0 0.01099,0.0092 c 0.72926,0.669854 1.016235,1.334622 1.016235,2.228393 0,0.925236 -0.276341,1.547894 -1.016235,2.226563 a 1.4063906,1.4063906 0 0 0 -0.0018,0 c -0.723024,0.664127 -1.511064,0.963006 -2.578125,0.988769 -0.162255,-0.0041 -0.315514,-0.06533 -0.476074,-0.08606 V 50.1472 Z m -48.38379,5.220337 1.572876,3.290405 h -3.112793 z m 162.240598,8.067627 v 1.97937 c -0.16861,0.175046 -0.38678,0.36858 -1.22863,0.386353 h -0.17578 a 1.4063906,1.4063906 0 0 0 -0.29114,0.120849 c 0.0372,-0.0377 0.0804,-0.06423 0.11719,-0.102539 a 1.4063906,1.4063906 0 0 0 0.0476,-0.05127 l 0.51636,-0.591431 a 1.4063906,1.4063906 0 0 0 0.009,-0.01282 c 0.44464,-0.521103 0.66799,-1.151841 1.00524,-1.728516 z m 17.5525,0.424805 -0.22156,0.745239 h -0.1355 c 0.10185,-0.234483 0.23827,-0.417323 0.32959,-0.668335 a 1.4063906,1.4063906 0 0 0 0.0275,-0.0769 z m -55.39124,0.501709 h 0.9082 a 1.4063906,1.4063906 0 0 0 -1.1499,0.737915 z m -82.265627,0.232544 h 1.11145 a 1.4063906,1.4063906 0 0 0 -1.290893,0.85144 c -5.84e-4,0.0014 -0.0031,4.32e-4 -0.0037,0.0018 z m -3.275757,0.682983 0.111695,0.184937 c -0.0063,-0.01434 -0.01913,-0.0013 -0.02564,-0.01648 a 1.4063906,1.4063906 0 0 0 -0.08606,-0.168457 z m 103.714604,0.02197 a 1.4063906,1.4063906 0 0 0 -0.0586,0.0824 c -4.6e-4,6.94e-4 -0.004,0.0011 -0.005,0.0018 z m -130.07813,0.739746 0.221558,0.02563 a 1.4063906,1.4063906 0 0 0 -0.09888,0.09705 1.4063906,1.4063906 0 0 0 -0.122681,-0.122681 z m 163.53333,2.973633 h 0.0183 c -0.003,0 -0.006,0.0017 -0.009,0.0018 -0.003,3.4e-5 -0.005,-0.0018 -0.009,-0.0018 z m 0.0183,0.48706 h 0.0238 c -0.005,-9e-5 -0.008,0.0018 -0.0128,0.0018 -0.004,-1.1e-5 -0.007,-0.0018 -0.011,-0.0018 z m 2.71545,1.104126 0.0311,0.03296 c -0.005,-0.0048 -0.0101,-0.0062 -0.0146,-0.01099 -0.006,-0.0062 -0.01,-0.01582 -0.0165,-0.02197 z M 94.317547,75.051332 C 88.865287,79.617139 84.081902,85.110261 80.059124,91.626039 74.05341,84.341865 67.403797,78.825889 60.126262,75.150209 Z m 127.009283,0.886231 -0.0879,0.08972 c 0.0164,-0.01539 0.0241,-0.03923 0.0403,-0.05493 0.014,-0.01507 0.0339,-0.01941 0.0476,-0.03479 z m -84.10584,0.07141 C 115.38706,76.568615 98.563864,88.985886 87.251507,112.58795 83.577162,114.79 80.072652,114.82237 76.07658,112.63375 70.784836,99.232998 63.095996,90.139573 52.959514,85.773989 42.671148,81.342989 30.074903,81.784105 15.325846,86.85248 a 1.4063906,1.4063906 0 0 0 -0.867919,1.80542 l 0.95581,2.649536 a 1.4063906,1.4063906 0 0 0 1.777954,0.853271 c 13.506348,-4.63007 24.618352,-4.890369 33.497315,-1.021728 8.878965,3.868641 15.712008,11.918341 20.496827,24.494021 a 1.4063906,1.4063906 0 0 0 0.245361,0.41198 l 0.591431,0.69397 a 1.4063906,1.4063906 0 0 0 0.333252,0.28748 c 6.297302,3.85804 12.802064,3.86982 18.641968,-0.0568 a 1.4063906,1.4063906 0 0 0 0.274658,-0.24353 l 0.516358,-0.5914 a 1.4063906,1.4063906 0 0 0 0.214233,-0.32775 c 5.962543,-12.73404 13.443606,-21.828977 22.402956,-27.416384 8.91224,-5.558036 19.33122,-7.685887 31.43738,-6.37024 l 71.89819,32.468264 a 1.4063906,1.4063906 0 0 0 1.85486,-0.69397 l 1.18652,-2.56714 a 1.4063906,1.4063906 0 0 0 -0.69946,-1.87134 L 147.76786,76.702943 a 1.4063906,1.4063906 0 0 0 -0.24169,-0.08423 l -0.41199,-0.100708 a 1.4063906,1.4063906 0 0 0 -0.17212,-0.03113 c -3.33998,-0.39937 -6.58099,-0.558392 -9.72107,-0.477905 z m -2.22656,14.436035 c -2.7981,-0.01088 -5.64293,0.277589 -8.52722,0.856934 -6.64702,1.305178 -12.63956,4.223706 -17.8418,8.768918 -5.23061,4.54387 -8.778669,10.29228 -10.546876,17.09656 a 1.4063906,1.4063906 0 0 0 1.362304,1.76147 h 8.457642 a 1.4063906,1.4063906 0 0 0 1.30188,-0.87524 c 3.84959,-9.43868 9.88529,-15.2278 18.35083,-17.70447 a 1.4063906,1.4063906 0 0 0 0.007,-0.002 c 8.9328,-2.648601 19.71061,-1.238483 32.48658,4.50806 a 1.4063906,1.4063906 0 0 0 1.63513,-2.20642 c -4.6094,-5.284317 -10.00902,-8.876323 -16.12976,-10.676882 a 1.4063906,1.4063906 0 0 0 -0.002,0 c -3.4327,-1.005318 -6.95455,-1.513102 -10.55237,-1.5271 z m 9.44275,11.689452 c -0.42755,-0.002 -0.85856,0.0131 -1.29456,0.0366 -3.46362,0.16169 -6.7688,0.85982 -9.8822,2.12586 -3.1069,1.23929 -6.06188,3.00756 -8.91175,5.26245 a 1.4063906,1.4063906 0 0 0 -0.005,0.005 c -2.92831,2.34732 -4.77753,4.95084 -5.17822,7.81494 a 1.4063906,1.4063906 0 0 0 1.39343,1.60034 h 8.22144 a 1.4063906,1.4063906 0 0 0 1.26526,-0.79467 c 3.50687,-7.25101 10.2738,-11.03773 21.06445,-11.46241 a 1.4063906,1.4063906 0 0 0 0.75073,-2.55615 c -1.95912,-1.37151 -4.46773,-2.02064 -7.42126,-2.03247 z" style="color:#000000;opacity:0.474858;fill:#000000;stroke:#000000;stroke-width:2.8125;stroke-linejoin:round;-inkscape-stroke:none;paint-order:markers stroke fill;filter:url(#filter2)"/>
 <path id="path2" inkscape:label="logoblanco" d="M 84.695436 22.5 C 83.008618 22.4935 81.288186 22.582087 79.531862 22.767334 C 73.1411 23.432274 68.388012 25.335115 65.507814 28.729249 A 1.4063906 1.4063906 0 0 0 67.35901 30.811158 C 72.006776 27.72183 77.165211 26.189576 83.001711 26.189576 C 89.205726 26.189576 94.680187 27.914787 99.554445 31.397095 C 99.556345 31.398495 99.557939 31.399358 99.559939 31.400758 L 100.94605 32.460938 C 101.63268 33.008405 102.28809 33.64523 102.94922 34.27002 C 101.61941 35.965598 100.45552 37.785285 99.602053 39.768678 A 1.4063906 1.4063906 0 0 0 99.600222 39.774171 C 98.803084 41.63945 98.228038 43.590121 97.884524 45.58777 A 1.4063906 1.4063906 0 0 0 97.882693 45.602418 C 97.802433 46.098091 97.818722 46.602805 97.765505 47.102052 C 97.519396 46.823479 97.375717 46.486813 97.082522 46.239625 C 95.490105 44.896035 93.483787 44.209714 91.311037 44.238282 L 81.637575 44.238282 A 1.4063906 1.4063906 0 0 0 81.597292 44.276734 A 1.4063906 1.4063906 0 0 0 81.55884 44.238282 L 75.44861 44.238282 A 1.4063906 1.4063906 0 0 0 74.187013 45.020143 L 67.626344 58.267824 L 60.975953 45.012818 A 1.4063906 1.4063906 0 0 0 59.71985 44.238282 L 53.532716 44.238282 A 1.4063906 1.4063906 0 0 0 52.126466 45.644532 L 52.126466 46.287232 A 1.4063906 1.4063906 0 0 0 53.532716 47.693482 L 53.675538 47.693482 C 54.444508 47.714252 54.836191 47.892544 54.99756 48.030397 C 55.158929 48.168249 55.263638 48.314289 55.272218 48.854371 L 55.272218 62.239381 C 55.194568 63.068045 54.988834 63.572194 54.818116 63.790285 C 54.646245 64.009849 54.542135 64.077668 54.135133 64.099733 L 53.895265 64.099733 A 1.4063906 1.4063906 0 0 0 53.86963 64.125368 C 53.299565 63.998273 52.917591 63.792159 52.608033 63.563234 L 43.613893 44.805909 A 1.4063906 1.4063906 0 0 0 42.344972 44.007569 L 41.544801 44.007569 A 1.4063906 1.4063906 0 0 0 40.286866 44.783937 L 39.904176 45.549317 L 40.746461 45.549317 A 1.4063906 1.4063906 0 0 0 39.473878 46.356813 L 33.173218 59.761964 A 1.4063906 1.4063906 0 0 0 32.438966 60.111696 L 31.314698 61.408082 C 29.851033 62.863233 28.244159 63.609891 26.217042 63.744508 L 26.215211 63.744508 L 25.581666 63.762819 C 23.819607 63.761119 22.469518 63.100652 21.156006 61.503297 A 1.4063906 1.4063906 0 0 0 21.150513 61.495973 C 19.845394 59.931481 19.207764 58.067354 19.207764 55.740968 C 19.207764 53.419459 19.838405 51.583645 21.157837 49.954835 C 22.465906 48.388996 23.851092 47.717286 25.612794 47.717286 C 27.345797 47.717286 28.738117 48.388372 30.047608 49.958497 L 30.049439 49.960328 C 30.668683 50.715904 31.153505 51.573012 31.483155 52.492677 A 1.4063906 1.4063906 0 0 0 32.711793 53.421022 L 33.429566 53.47046 A 1.4063906 1.4063906 0 0 0 34.925538 51.926881 L 34.257203 45.298463 A 1.4063906 1.4063906 0 0 0 32.858277 44.033204 L 32.572633 44.033204 A 1.4063906 1.4063906 0 0 0 31.28357 44.879151 C 31.146276 45.195547 31.074582 45.170823 30.842286 45.179444 C 29.162394 44.433324 27.344262 44.008573 25.389405 44.007569 C 21.964575 43.979809 18.888869 45.13627 16.40625 47.440797 A 1.4063906 1.4063906 0 0 0 16.395264 47.451783 C 13.968682 49.755053 12.65625 52.685047 12.65625 55.947877 C 12.65625 59.208295 13.972972 62.117617 16.395264 64.418336 A 1.4063906 1.4063906 0 0 0 16.40625 64.429323 C 18.885726 66.729411 21.953041 67.911989 25.38025 67.911989 L 25.535889 67.911989 A 1.4063906 1.4063906 0 0 0 25.563355 67.911989 C 27.069714 67.883119 28.49205 67.553668 29.804078 66.950685 A 1.4063906 1.4063906 0 0 0 30.406495 67.553102 L 37.265626 67.553102 A 1.4063906 1.4063906 0 0 0 38.671876 66.146852 L 38.671876 65.529787 A 1.4063906 1.4063906 0 0 0 37.439576 64.134523 C 36.767065 64.050833 36.46482 63.920778 36.256715 63.830568 L 37.770997 60.617067 L 44.600831 60.617067 L 45.979615 63.515626 C 45.989805 63.631496 46.002618 63.732539 45.966798 63.770143 C 45.916368 63.823083 45.623766 64.018647 44.945069 64.108888 A 1.4063906 1.4063906 0 0 0 43.723756 65.504152 L 43.723756 66.146852 A 1.4063906 1.4063906 0 0 0 45.130006 67.553102 L 53.637086 67.553102 A 1.4063906 1.4063906 0 0 0 53.778077 67.41028 A 1.4063906 1.4063906 0 0 0 53.895265 67.527467 L 61.52527 67.527467 A 1.4063906 1.4063906 0 0 0 62.93152 66.121217 L 62.93152 65.505983 A 1.4063906 1.4063906 0 0 0 61.604005 64.101564 C 60.550471 64.043554 59.845473 63.843538 59.555055 63.682252 C 59.264638 63.520966 59.353868 63.599022 59.348146 63.466188 L 59.348146 55.133058 L 65.273439 66.78589 A 1.4063906 1.4063906 0 0 0 66.659547 67.547609 L 67.20154 67.496339 A 1.4063906 1.4063906 0 0 0 68.327638 66.719972 L 74.196169 54.904176 L 74.196169 63.5907 C 74.182839 63.751865 74.180264 63.742089 73.818971 63.863527 L 72.191164 64.118043 A 1.4063906 1.4063906 0 0 0 71.002809 65.505983 L 71.002809 66.121217 A 1.4063906 1.4063906 0 0 0 72.409059 67.527467 L 81.170656 67.527467 A 1.4063906 1.4063906 0 0 0 81.582643 67.113649 A 1.4063906 1.4063906 0 0 0 81.996462 67.527467 L 90.761721 67.527467 A 1.4063906 1.4063906 0 0 0 92.167971 66.121217 L 92.167971 65.505983 A 1.4063906 1.4063906 0 0 0 90.975954 64.118043 L 89.349977 63.863527 C 88.998282 63.748194 89.013017 63.780046 88.996584 63.5907 L 88.996584 58.515016 A 1.4063906 1.4063906 0 0 0 88.970949 58.491212 L 88.970949 58.247682 L 91.138918 58.544313 A 1.4063906 1.4063906 0 0 0 91.329348 58.558961 C 93.490181 58.558961 95.482694 57.875693 97.073366 56.537477 C 97.485606 56.196883 97.716837 55.743018 98.03467 55.339967 C 98.800173 59.308928 100.62891 62.890741 103.19641 66.146852 C 100.6397 67.540375 98.181108 69.071203 95.855715 70.792238 L 95.855715 68.972169 A 1.4063906 1.4063906 0 0 0 94.445803 67.565919 L 35.332032 67.772829 A 1.4063906 1.4063906 0 0 0 35.330201 67.77466 C 28.326673 67.75387 21.318204 68.776304 14.300537 70.889284 A 1.4063906 1.4063906 0 0 0 13.361206 72.643434 L 14.187012 75.366213 A 1.4063906 1.4063906 0 0 0 15.933838 76.307375 C 22.87865 74.247081 28.112047 73.286746 31.470338 73.333742 A 1.4063906 1.4063906 0 0 0 31.474 73.333742 L 38.168336 73.410646 L 41.687623 73.758546 L 41.693116 73.760378 C 55.191106 75.633186 66.807939 83.065934 76.746828 96.329958 L 78.10547 98.171999 A 1.4063906 1.4063906 0 0 0 80.484011 97.987063 L 81.525881 95.989382 L 81.531374 95.978396 C 88.506428 83.380279 97.965415 74.470255 109.97132 69.058229 C 110.57507 68.78586 111.1783 68.522527 111.78772 68.270875 C 112.583 67.942911 113.39587 67.63005 114.21936 67.329713 C 114.79811 67.118214 115.37188 66.911637 115.94605 66.719972 C 116.86222 66.414961 117.79612 66.131861 118.74573 65.861207 A 1.4063906 1.4063906 0 0 0 118.74756 65.859376 C 119.24321 65.717649 119.72292 65.579391 120.19776 65.454713 C 121.28835 65.169401 122.4051 64.913094 123.54126 64.672853 A 1.4063906 1.4063906 0 0 0 123.54309 64.672853 C 123.96581 64.583063 124.36157 64.491259 124.74427 64.416505 C 126.00683 64.171069 127.29756 63.96027 128.61145 63.771974 A 1.4063906 1.4063906 0 0 0 128.61328 63.770143 C 128.93069 63.724393 129.21956 63.676424 129.49219 63.640138 C 130.93708 63.448994 132.40951 63.294148 133.90869 63.173219 C 134.12128 63.155939 134.30375 63.137482 134.46167 63.125612 C 136.08468 63.004648 137.73816 62.926308 139.42383 62.887575 C 139.54799 62.884775 139.62271 62.879119 139.65454 62.878419 C 141.3514 62.843319 143.08333 62.854103 144.84009 62.902223 L 209.90662 91.052858 C 208.84935 92.87729 208.0954 94.702875 207.9657 96.52405 C 207.80074 98.840427 208.47221 101.1038 209.87183 103.14514 A 1.4063906 1.4063906 0 0 0 212.41333 102.09412 C 211.8693 99.13152 212.16027 97.079627 212.97364 95.793459 C 213.78701 94.50729 215.18874 93.714699 217.6648 93.471682 A 1.4063906 1.4063906 0 0 0 217.82959 93.446047 C 218.29082 93.344708 218.70004 93.219604 219.09852 93.002932 C 219.49699 92.786259 219.94099 92.434709 220.16053 91.845705 C 220.38006 91.256701 220.24451 90.598195 220.01587 90.17029 C 219.78726 89.742385 219.48965 89.438445 219.14795 89.139406 A 1.4063906 1.4063906 0 0 0 218.78357 88.906862 L 169.12537 67.322389 L 172.8241 67.322389 A 1.4063906 1.4063906 0 0 0 174.23035 65.916139 L 174.23035 65.273439 A 1.4063906 1.4063906 0 0 0 173.03833 63.883668 L 171.41236 63.632814 C 171.06063 63.517543 171.07559 63.549485 171.05896 63.358156 L 171.05896 58.405153 L 177.45667 66.769411 A 1.4063906 1.4063906 0 0 0 178.57361 67.320558 L 181.30555 67.320558 L 182.01783 67.320558 A 1.4063906 1.4063906 0 0 0 182.08374 67.348024 L 194.32801 67.320558 A 1.4063906 1.4063906 0 0 0 194.39576 67.318727 C 196.7771 67.196976 198.94368 66.299743 200.78064 64.780885 A 1.4063906 1.4063906 0 0 0 200.57557 65.273439 L 200.57557 65.941774 A 1.4063906 1.4063906 0 0 0 201.98914 67.348024 L 206.98426 67.322389 A 1.4063906 1.4063906 0 0 0 207.00989 67.348024 L 215.83374 67.348024 C 215.19211 67.558765 214.58413 67.867534 214.08875 68.360597 A 1.4063906 1.4063906 0 0 0 214.06311 68.386232 C 213.29534 69.189088 212.84729 70.303793 212.84729 71.466066 C 212.84729 72.59669 213.294 73.700058 214.08692 74.490968 A 1.4063906 1.4063906 0 0 0 214.10889 74.512941 C 214.92847 75.292562 216.01313 75.761274 217.14661 75.798341 A 1.4063906 1.4063906 0 0 0 217.23816 75.798341 C 218.3718 75.761331 219.44492 75.28086 220.25208 74.512941 A 1.4063906 1.4063906 0 0 0 220.25391 74.51111 C 221.08515 73.718196 221.53931 72.595571 221.53931 71.466066 C 221.53931 70.309128 221.08484 69.180577 220.28321 68.375246 C 219.8029 67.879835 219.20068 67.562076 218.55835 67.348024 L 218.7909 67.348024 A 1.4063906 1.4063906 0 0 0 220.1294 66.377565 L 221.65101 61.701051 A 1.4063906 1.4063906 0 0 0 220.3125 59.85901 L 219.66797 59.85901 A 1.4063906 1.4063906 0 0 0 218.32032 60.862428 L 218.26539 61.049196 C 217.80225 62.318279 217.25547 63.006806 216.77491 63.350831 L 215.72571 63.508302 L 209.29322 63.486329 L 209.29322 57.273561 L 214.35975 57.253419 C 214.52616 57.394986 214.71338 57.589424 214.73145 58.441774 L 214.73145 58.593751 A 1.4063906 1.4063906 0 0 0 216.13587 60.000001 L 216.80603 60.000001 A 1.4063906 1.4063906 0 0 0 218.21228 58.593751 L 218.21228 51.990968 A 1.4063906 1.4063906 0 0 0 216.80603 50.584718 L 216.13587 50.584718 A 1.4063906 1.4063906 0 0 0 214.72962 51.990968 L 214.72962 52.166749 C 214.71192 52.983066 214.52281 53.190999 214.33594 53.358766 L 209.29322 53.338624 L 209.29322 47.843629 L 216.34644 47.821656 C 216.53464 47.990892 216.72249 48.200226 216.74012 49.015504 L 216.74012 49.191285 A 1.4063906 1.4063906 0 0 0 218.14637 50.597535 L 218.81653 50.597535 A 1.4063906 1.4063906 0 0 0 220.22278 49.18213 L 220.19898 45.404664 A 1.4063906 1.4063906 0 0 0 218.79273 44.007569 L 211.70289 44.007569 A 1.4063906 1.4063906 0 0 0 211.67725 44.033204 L 201.98182 44.033204 A 1.4063906 1.4063906 0 0 0 200.57557 45.439454 L 200.57557 46.05652 A 1.4063906 1.4063906 0 0 0 200.78064 46.550904 C 198.94201 45.03174 196.77239 44.133556 194.38294 44.035035 A 1.4063906 1.4063906 0 0 0 194.32434 44.033204 L 182.08008 44.033204 A 1.4063906 1.4063906 0 0 0 180.67383 45.439454 L 180.67383 46.05652 A 1.4063906 1.4063906 0 0 0 182.08008 47.46277 L 182.25403 47.46277 C 183.15584 47.4824 183.37181 47.680146 183.5083 47.836305 L 183.5083 63.493654 C 183.37084 63.651182 183.15445 63.848612 182.25586 63.867189 L 182.016 63.867189 L 177.30469 57.491456 C 177.95369 57.182155 178.56644 56.800204 179.12659 56.341554 C 179.81125 55.783946 180.38598 55.104263 180.82215 54.336549 C 181.37707 53.380108 181.6632 52.290985 181.65162 51.185304 C 181.64862 49.18288 180.73097 47.347719 179.1449 46.008912 A 1.4063906 1.4063906 0 0 0 179.13025 45.997926 C 177.54177 44.689658 175.54346 44.003123 173.34595 44.033204 L 163.69812 44.033204 A 1.4063906 1.4063906 0 0 0 163.32459 44.406739 A 1.4063906 1.4063906 0 0 0 162.92359 44.007569 L 155.80811 44.007569 A 1.4063906 1.4063906 0 0 0 155.78247 44.033204 L 150.8313 44.033204 C 150.34575 41.9039 149.64614 39.83005 148.62122 37.89734 A 1.4063906 1.4063906 0 0 0 148.3722 37.560426 L 149.16687 38.353272 L 152.38037 33.270264 A 1.4063906 1.4063906 0 0 0 152.38221 33.264771 C 153.32525 31.765728 155.80597 29.850783 159.81995 27.925416 A 1.4063906 1.4063906 0 0 0 159.21204 25.252076 L 140.62134 25.252076 A 1.4063906 1.4063906 0 0 0 139.80103 27.800904 C 140.43658 28.257147 140.64976 28.640857 140.75501 29.007569 C 136.07501 25.490037 130.65403 23.611451 124.53553 23.611451 C 119.62765 23.611451 115.13484 24.748881 111.15235 27.031861 A 1.4063906 1.4063906 0 0 0 111.14685 27.035523 C 109.77533 27.831504 108.52898 28.815174 107.31079 29.827881 C 105.7519 28.734757 104.16115 27.685096 102.47498 26.799317 A 1.4063906 1.4063906 0 0 0 102.43103 26.777344 L 101.01563 26.098023 C 100.33261 25.750595 99.630913 25.440998 98.913576 25.171509 L 98.906252 25.169678 C 94.502361 23.408653 89.754256 22.519492 84.695436 22.5 z M 121.27075 30.157471 C 121.73769 30.155971 122.21519 30.170285 122.70264 30.197755 C 127.89767 30.490516 132.4073 32.380638 136.43738 35.842896 L 123.89466 51.64673 C 121.59174 45.728765 118.48366 40.519973 114.48853 36.141358 A 1.4063906 1.4063906 0 0 0 114.42078 36.071778 L 111.28784 33.074342 C 111.69705 32.807955 112.0772 32.497344 112.50916 32.268677 A 1.4063906 1.4063906 0 0 0 112.51831 32.265015 C 115.10362 30.873953 117.98682 30.16821 121.27075 30.157471 z M 106.34766 38.010865 C 106.91918 38.715548 107.52484 39.40263 108.03772 40.147706 L 108.68958 41.099854 C 112.37565 46.848418 114.23401 53.463347 114.23401 61.007081 L 114.23401 61.318361 C 112.53042 61.878541 110.85034 62.505748 109.19678 63.198854 C 105.5027 59.153407 103.49874 54.613022 103.17444 49.389039 L 103.17444 49.387208 C 103.00713 46.208277 103.46863 43.380458 104.53491 40.876466 C 104.98502 39.832867 105.69374 38.937732 106.34766 38.010865 z M 171.47828 45.192262 L 171.57532 45.192262 C 171.55872 45.191447 171.54431 45.200286 171.52771 45.199586 C 171.51081 45.199801 171.49518 45.191862 171.47828 45.192262 z M 143.8385 46.706544 C 144.36167 48.400692 144.7533 50.147715 144.86573 52.023927 A 1.4063906 1.4063906 0 0 0 144.86573 52.02942 C 144.98668 53.929335 144.81716 55.660517 144.4812 57.308351 C 141.98675 57.248651 139.4922 57.324808 136.99951 57.4292 L 143.8385 46.706544 z M 201.69434 47.343751 A 1.4063906 1.4063906 0 0 0 201.98182 47.46277 L 202.1576 47.46277 C 203.00211 47.48154 203.2184 47.673592 203.38623 47.847291 L 203.38623 49.82483 C 203.04935 49.24883 202.82668 48.619098 202.38282 48.098146 A 1.4063906 1.4063906 0 0 0 202.37183 48.085328 L 201.85547 47.493897 A 1.4063906 1.4063906 0 0 0 201.80787 47.442628 C 201.77227 47.405621 201.73027 47.380192 201.69434 47.343751 z M 164.34632 47.611085 C 164.65841 47.681325 164.99763 47.740553 165.10071 47.847291 L 165.10071 60.071412 A 1.4063906 1.4063906 0 0 0 164.44519 59.85901 L 163.80066 59.85901 A 1.4063906 1.4063906 0 0 0 162.45301 60.862428 L 162.39807 61.049196 C 161.92438 62.347274 161.37102 63.059353 160.86548 63.394777 C 160.66332 63.457667 160.47654 63.493824 160.318 63.493654 L 153.42408 60.498048 L 153.42408 57.273561 L 158.4906 57.253419 C 158.65681 57.394607 158.84335 57.589412 158.86048 58.441774 L 158.86048 58.593751 A 1.4063906 1.4063906 0 0 0 160.26673 60.000001 L 160.93872 60.000001 A 1.4063906 1.4063906 0 0 0 162.34497 58.593751 L 162.34497 51.990968 A 1.4063906 1.4063906 0 0 0 160.93872 50.584718 L 160.26673 50.584718 A 1.4063906 1.4063906 0 0 0 158.86048 51.990968 L 158.86048 52.16858 C 158.84378 52.983203 158.65479 53.18924 158.46863 53.356935 L 153.42408 53.338624 L 153.42408 47.843629 L 160.47913 47.821656 C 160.66802 47.991497 160.8552 48.201799 160.87281 49.015504 L 160.87281 49.191285 A 1.4063906 1.4063906 0 0 0 162.27906 50.597535 L 162.94922 50.597535 A 1.4063906 1.4063906 0 0 0 164.35547 49.18213 L 164.34632 47.611085 z M 81.597292 47.65503 A 1.4063906 1.4063906 0 0 0 81.637575 47.693482 L 81.813356 47.693482 C 82.657363 47.711292 82.872263 47.902916 83.040163 48.078004 L 83.040163 63.554079 C 82.853776 63.961618 82.752411 64.073676 82.282106 64.099733 L 81.996462 64.099733 A 1.4063906 1.4063906 0 0 0 81.582643 64.51172 A 1.4063906 1.4063906 0 0 0 81.170656 64.099733 L 80.93445 64.099733 C 80.414113 64.071693 80.32554 63.98233 80.128786 63.537599 L 80.128786 48.067018 C 80.265973 47.910329 80.482347 47.712066 81.381227 47.693482 L 81.55884 47.693482 A 1.4063906 1.4063906 0 0 0 81.597292 47.65503 z M 183.65845 47.878419 C 183.65877 47.878899 183.66211 47.87975 183.66211 47.88025 A 1.4063906 1.4063906 0 0 0 183.71338 47.953492 L 183.65845 47.878419 z M 189.41529 47.900392 L 193.96546 48.068849 C 194.97918 48.430455 195.89563 49.010405 196.72852 49.94568 A 1.4063906 1.4063906 0 0 0 196.73035 49.94568 C 198.15796 51.545801 198.84785 53.391413 198.87268 55.689698 C 198.84778 57.986506 198.15597 59.832157 196.73584 61.402589 A 1.4063906 1.4063906 0 0 0 196.72852 61.409913 C 195.89482 62.346095 194.97902 62.927624 193.96363 63.290407 L 189.41529 63.457033 L 189.41529 47.900392 z M 171.43982 48.0011 A 1.4063906 1.4063906 0 0 0 171.53504 48.0011 C 172.58457 47.97998 173.36169 48.273216 174.09119 48.942262 C 174.81999 49.61075 175.10376 50.266541 175.10376 51.194459 C 175.10376 51.822759 174.93942 52.339155 174.60572 52.831422 C 174.44326 53.05122 174.28774 53.230938 174.14978 53.344117 A 1.4063906 1.4063906 0 0 0 174.09119 53.395387 C 173.3622 54.063962 172.56313 54.377943 171.52039 54.406129 C 171.34608 54.398429 171.17986 54.336514 171.00769 54.310914 L 171.00769 48.072511 C 171.15382 48.059791 171.2926 47.99389 171.43982 48.0011 z M 79.974977 48.112794 C 79.975252 48.112376 79.978339 48.113213 79.978639 48.112794 L 79.923708 48.184205 A 1.4063906 1.4063906 0 0 0 79.974977 48.112794 z M 89.529421 48.213502 C 90.45072 48.194582 91.343719 48.530214 92.015993 49.161988 A 1.4063906 1.4063906 0 0 0 92.02698 49.171144 C 92.75624 49.840998 93.043215 50.505766 93.043215 51.399537 C 93.043215 52.324773 92.766874 52.947431 92.02698 53.6261 A 1.4063906 1.4063906 0 0 0 92.025148 53.6261 C 91.302124 54.290227 90.514084 54.589106 89.447023 54.614869 C 89.284768 54.610769 89.131509 54.54954 88.970949 54.52881 L 88.970949 48.305055 L 89.529421 48.213502 z M 41.145631 53.433839 L 42.718507 56.724244 L 39.605714 56.724244 L 41.145631 53.433839 z M 203.38623 61.501466 L 203.38623 63.480836 C 203.21762 63.655882 202.99945 63.849416 202.1576 63.867189 L 201.98182 63.867189 A 1.4063906 1.4063906 0 0 0 201.69068 63.988038 C 201.72786 63.950337 201.77104 63.92381 201.80787 63.885499 A 1.4063906 1.4063906 0 0 0 201.85547 63.83423 L 202.37183 63.242799 A 1.4063906 1.4063906 0 0 0 202.38099 63.229982 C 202.82563 62.708879 203.04898 62.078141 203.38623 61.501466 z M 220.93873 61.926271 L 220.71717 62.67151 L 220.58167 62.67151 C 220.68352 62.437027 220.81994 62.254187 220.91126 62.003175 A 1.4063906 1.4063906 0 0 0 220.93873 61.926271 z M 165.54749 62.42798 L 166.45569 62.42798 A 1.4063906 1.4063906 0 0 0 165.30579 63.165895 L 165.54749 62.42798 z M 83.281862 62.660524 L 84.393312 62.660524 A 1.4063906 1.4063906 0 0 0 83.102419 63.511964 C 83.101835 63.513364 83.099357 63.512396 83.098757 63.513795 L 83.281862 62.660524 z M 80.006105 63.343507 L 80.1178 63.528444 C 80.1115 63.514104 80.098675 63.527144 80.092165 63.511964 A 1.4063906 1.4063906 0 0 0 80.006105 63.343507 z M 183.72071 63.36548 A 1.4063906 1.4063906 0 0 0 183.66211 63.447877 C 183.66165 63.448571 183.65762 63.449008 183.65662 63.449708 L 183.72071 63.36548 z M 53.642579 64.105226 L 53.864137 64.130861 A 1.4063906 1.4063906 0 0 0 53.76526 64.227907 A 1.4063906 1.4063906 0 0 0 53.642579 64.105226 z M 217.17591 67.078859 L 217.19422 67.078859 C 217.19122 67.078859 217.18806 67.08059 217.18506 67.08069 C 217.18206 67.080724 217.17991 67.078859 217.17591 67.078859 z M 217.19422 67.565919 L 217.21802 67.565919 C 217.21302 67.565829 217.2099 67.56775 217.2052 67.56775 C 217.2012 67.567739 217.19792 67.565919 217.19422 67.565919 z M 219.90967 68.670045 L 219.9408 68.703004 C 219.9358 68.698204 219.93075 68.696838 219.92615 68.692018 C 219.92015 68.685818 219.91627 68.676195 219.90967 68.670045 z M 92.958986 73.20923 C 87.506726 77.775037 82.723341 83.268159 78.700563 89.783937 C 72.694849 82.499763 66.045236 76.983787 58.767701 73.308107 L 92.958986 73.20923 z M 219.96827 74.095461 L 219.88038 74.185182 C 219.89678 74.169792 219.90446 74.145951 219.92066 74.130251 C 219.93466 74.115181 219.95457 74.110841 219.96827 74.095461 z M 135.86243 74.166872 C 114.0285 74.726514 97.205303 87.143785 85.892946 110.74585 C 82.218601 112.9479 78.714091 112.98027 74.718019 110.79163 C 69.426275 97.390896 61.737435 88.297471 51.600953 83.931887 C 41.312587 79.500887 28.716342 79.942003 13.967285 85.010378 A 1.4063906 1.4063906 0 0 0 13.099366 86.815798 L 14.055176 89.465334 A 1.4063906 1.4063906 0 0 0 15.83313 90.318605 C 29.339478 85.688535 40.451482 85.428236 49.330445 89.296877 C 58.20941 93.165518 65.042453 101.21522 69.827272 113.7909 A 1.4063906 1.4063906 0 0 0 70.072633 114.20288 L 70.664064 114.89685 A 1.4063906 1.4063906 0 0 0 70.997316 115.18433 C 77.294618 119.04237 83.79938 119.05415 89.639284 115.12757 A 1.4063906 1.4063906 0 0 0 89.913942 114.88404 L 90.4303 114.2926 A 1.4063906 1.4063906 0 0 0 90.644533 113.96485 C 96.607076 101.23081 104.08814 92.135871 113.04749 86.548464 C 121.95973 80.990428 132.37871 78.862577 144.48487 80.178224 L 216.38306 112.64649 A 1.4063906 1.4063906 0 0 0 218.23792 111.95252 L 219.42444 109.38538 A 1.4063906 1.4063906 0 0 0 218.72498 107.51404 L 146.4093 74.860841 A 1.4063906 1.4063906 0 0 0 146.16761 74.776613 L 145.75562 74.675905 A 1.4063906 1.4063906 0 0 0 145.5835 74.644777 C 142.24352 74.245407 139.00251 74.086385 135.86243 74.166872 z M 133.63587 88.602907 C 130.83777 88.592027 127.99294 88.880496 125.10865 89.459841 C 118.46163 90.765019 112.46909 93.683547 107.26685 98.228762 C 102.03624 102.77263 98.488177 108.52104 96.719973 115.32532 A 1.4063906 1.4063906 0 0 0 98.082277 117.08679 L 106.53992 117.08679 A 1.4063906 1.4063906 0 0 0 107.8418 116.21155 C 111.69139 106.77287 117.72709 100.98375 126.19263 98.507082 A 1.4063906 1.4063906 0 0 0 126.19995 98.505251 C 135.13275 95.856648 145.91056 97.266766 158.68653 103.01331 A 1.4063906 1.4063906 0 0 0 160.32166 100.80689 C 155.71226 95.522572 150.31264 91.930566 144.1919 90.130007 A 1.4063906 1.4063906 0 0 0 144.19007 90.130007 C 140.75737 89.124689 137.23552 88.616905 133.6377 88.602907 L 133.63587 88.602907 z M 143.07862 100.29236 C 142.65107 100.29036 142.22006 100.30548 141.78406 100.32898 C 138.32044 100.49067 135.01526 101.1888 131.90186 102.45484 C 128.79496 103.69413 125.83998 105.4624 122.99011 107.71729 A 1.4063906 1.4063906 0 0 0 122.98462 107.72278 C 120.05631 110.0701 118.20709 112.67362 117.8064 115.53772 A 1.4063906 1.4063906 0 0 0 119.19983 117.13806 L 127.42127 117.13806 A 1.4063906 1.4063906 0 0 0 128.68653 116.34339 C 132.1934 109.09238 138.96033 105.30566 149.75098 104.88098 A 1.4063906 1.4063906 0 0 0 150.50171 102.32483 C 148.54259 100.95332 146.03398 100.30419 143.08045 100.29236 L 143.07862 100.29236 z " style="color:#000000;fill:#ffffff;stroke-linejoin:round;-inkscape-stroke:none;paint-order:markers stroke fill;stroke:#ffffff;stroke-width:1.87500004"/>
 <g id="g2" inkscape:label="logo" transform="matrix(0.11,0,0,0.11,14.062497,23.906097)" style="display:inline">
  <path id="path24-3" inkscape:label="circulo" d="m 1844.0626,417.17305 -8.4375,0.23752 v 29.9 h 5.625 v -12.625 l 3.05,0.475 7.9625,12.15 h 6.3376 l -8.6751,-13.3125 3.9875,-3.275 1.4,-4.675 c 0,-5.8375 -3.75,-8.875 -11.25,-8.875 z m 5.8625,8.875 -1.65,3.5 -5.15,0.9375 h -1.875 v -8.175 l 1.6376,-0.4625 4.9249,1.1625 c 1.175,0.475 1.875,1.4 2.1125,3.0375" style="stroke-width:12.5" fill="#006600"/>
  <path id="path22" inkscape:label="registrado" d="M 642.06484,0.00366211 C 627.21329,-0.05356431 612.02586,0.73554758 596.50087,2.3730469 540.25092,8.2230421 500.62584,24.79783 477.43837,52.122804 521.72582,22.685333 571.39932,7.9724123 626.72426,7.9724123 c 58.82495,0 111.5508,16.5747877 157.96326,49.7497577 l 13.125,10.037842 c 9.37499,7.474989 18.51305,15.650694 27.42554,24.763184 l 11.25,11.912844 1.39893,1.875 c 9.84999,10.97499 18.7513,22.18724 26.95129,34.09973 l 6.09924,8.87512 c 34.92497,54.41245 52.50001,117.24995 52.50001,187.99989 v 11.68762 c 1.17499,-0.23752 2.11325,-0.70001 3.27575,-0.9375 l 10.08728,-3.03772 c 48.74995,-14.25 101.24954,-23.1243 157.26194,-27.08679 l 89.0625,-139.6637 c -11.4875,-24.52498 -27.4242,-46.96155 -48.2867,-67.74903 l -4.4513,-3.9624 -135.69947,170.96192 C 973.82505,216.06074 943.36196,163.51016 903.51199,119.83521 L 863.43752,81.535036 848.19949,69.160768 A 393.31253,393.31253 0 0 0 797.81252,37.622682 l -13.125,-6.311646 A 175.12502,175.12502 0 0 0 766.63698,23.373414 C 728.14327,7.9703036 686.61948,0.17534138 642.06484,0.00366211 Z M 1150.5378,25.023194 c 15.9499,11.449988 19.224,25.925629 9.624,43.438112 l 8.9007,8.411865 c 17.575,17.287482 31.8745,35.974139 42.887,56.286619 l 34.6875,-54.874876 c 11.025,-17.524987 35.3998,-35.274236 72.8998,-53.26172 z m 138.0505,170.500496 v 0.2362 h -55.0763 l 3.75,32.92603 v 9.81262 c 0,25.68749 -3.75,49.74971 -11.25,72.17469 v 18.21167 l 28.125,12.15088 v -50.68726 h 5.1636 v 0.2362 l 59.0625,-0.2362 0.9375,0.47424 c 6.325,3.9625 9.6114,11.67538 9.8364,22.87537 v 1.64978 h 6.1011 v -60.03662 h -6.1011 v 1.875 c -0.2251,10.97499 -3.5114,18.68635 -9.8364,22.88635 l -0.9375,0.47607 -59.0625,-0.25085 v 0.25085 h -5.1636 v -75.68847 l 82.5,-0.22522 0.9375,0.46325 c 6.325,4.21251 9.6136,11.91137 9.8511,22.88636 v 1.875 h 6.0864 l -0.2252,-34.33594 z m 508.136,0 v 0.2362 h -88.3612 v 5.6012 h 1.875 c 11.25,0.24998 18.987,3.49959 23.1994,9.57458 l 0.4633,0.9375 v 153.68775 l -0.4633,0.92469 c -4.2124,6.075 -11.9494,9.34989 -23.1994,9.5874 h -1.875 v 6.06262 l 45.6994,-0.22522 v 0.22522 h 107.1131 l 13.8245,-42.50061 h -5.8631 l -0.6994,2.33826 c -4.925,13.53748 -11.2506,22.8743 -18.9881,28.02429 l -1.1737,0.70129 -14.0515,2.09839 -72.1875,-0.2362 v -82.21253 h 5.376 v 0.2362 l 59.0753,-0.2362 0.6994,0.47424 c 6.325,3.9625 9.6118,11.67538 9.8493,22.87537 v 1.64978 h 6.0883 v -60.03662 h -6.0883 v 1.875 c -0.2374,10.97499 -3.5243,18.68635 -9.8493,22.88635 l -0.6994,0.47607 -59.0625,-0.25085 v 0.25085 h -5.3888 v -75.68847 l 82.7252,-0.22522 0.7123,0.46325 c 6.325,4.21251 9.6008,11.91137 9.8383,22.88636 v 1.875 h 6.0882 l -0.2252,-34.33594 z m -436.4118,0.2362 v 5.6012 h 1.875 c 11.25,0.24999 18.987,3.49959 23.1995,9.57458 l 0.4761,0.9375 v 149.95057 l -0.2381,1.16272 h -0.238 c -3.75,8.17498 -9.837,12.62405 -18.512,13.08655 h -3.2739 v 5.8374 h 79.6875 v -5.8374 l -16.6516,-2.57446 c -7.5002,-2.5625 -11.4747,-6.99983 -12.1747,-13.54981 v -47.41333 h -0.4742 V 294.0857 l 17.8125,4.43665 63.75,83.37524 h 24.8492 7.0258 v 0.25086 l 111.3244,-0.25086 c 22.7375,-1.1625 42.4245,-10.26235 58.8245,-27.32483 l 4.6875,-5.37414 c 14.5375,-17.03748 21.8005,-37.36394 21.8005,-60.4889 0,-23.12494 -7.263,-43.4374 -21.8005,-60.49987 l -4.6875,-5.36133 c -16.4,-17.04998 -36.087,-26.15113 -58.8245,-27.08863 h -111.3244 v 5.6012 h 1.875 c 11.4875,0.24999 19.2119,3.4996 23.1994,9.57458 l 0.6995,0.9375 v 153.68775 l -0.6995,0.92469 c -3.9875,6.07498 -11.7119,9.3499 -23.1994,9.5874 h -8.9008 l -56.9623,-77.08741 a 68.637507,68.637507 0 0 0 29.0625,-14.00024 52.000005,52.000005 0 0 0 12.4256,-14.72534 43.125004,43.125004 0 0 0 5.8502,-22.18689 c 0,-14.71248 -6.0883,-27.08801 -18.2758,-37.37549 -12.1873,-10.03748 -26.9505,-15.17525 -44.3005,-14.93775 z m 221.012,9.11316 57.4255,2.11304 v -0.0128 c 11.7125,3.96251 22.2618,10.97441 31.4118,21.24939 15,16.8125 22.5002,37.12513 22.7252,60.7251 -0.2251,23.58748 -7.7252,43.91239 -22.7252,60.49988 -9.15,10.27499 -19.6993,17.27623 -31.4118,21.25122 l -57.4255,2.09839 z m -150,1.40076 c 12.425,-0.24998 23.213,3.73752 32.113,11.90002 8.9125,8.175 13.3631,18.22431 13.3631,29.8993 0,8.17499 -2.3381,15.64939 -6.8006,22.18689 -1.875,2.57499 -3.9875,5.13848 -6.5625,7.25097 -8.9,8.1625 -19.688,12.37481 -32.113,12.61231 a 58.575007,58.575007 0 0 1 -17.3364,-3.27576 v -77.77405 a 42.312504,42.312504 0 0 1 17.3364,-2.79968 z m -70.0745,133.34839 -0.6994,2.35108 c -4.925,13.53749 -11.2511,22.87429 -19.2261,28.02429 l -0.9375,0.70129 c -4.2125,1.625 -8.4377,2.33589 -12.4127,2.09839 l 21.3263,9.33838 h 3.9862 l 13.8263,-42.50061 h -5.8631 z m 485.387,65.63782 c -7.2626,0 -13.8238,2.57513 -19.2114,7.93762 -4.925,5.15 -7.5,11.45133 -7.5,19.16382 0,7.23749 2.575,13.5372 7.5,18.44971 5.3876,5.12499 11.9488,7.93632 19.2114,8.17383 7.2749,-0.23752 13.6009,-3.03634 19.0009,-8.17383 5.15,-4.91251 7.7252,-11.21222 7.7252,-18.44971 0,-7.71249 -2.5757,-14.01382 -7.738,-19.16382 a 25.925002,25.925002 0 0 0 -18.9881,-7.93762 z m 0,4.43848 c 6.3374,0 11.7263,2.09915 15.7013,6.31164 4.4626,4.4375 6.7987,9.57525 6.7987,15.87525 0,6.31249 -2.3361,11.68775 -6.7987,15.87524 -3.975,4.45 -9.3763,6.54969 -15.7013,6.54969 -6.325,0 -11.475,-2.09936 -15.9375,-6.53687 -4.2124,-4.19999 -6.3245,-9.57525 -6.3245,-15.87524 0,-6.3125 2.1121,-11.45057 6.3245,-15.88807 a 22.150002,22.150002 0 0 1 15.9375,-6.31164 z m -739.0247,59.97803 C 912.39029,474.68042 763.86011,584.47874 662.34926,799.07229 623.6743,823.3473 583.59998,823.5855 541.87501,799.53554 447.18761,554.04825 267.65053,476.73494 3.2757569,567.58485 l 8.6737061,24.06373 C 261.32425,506.16115 430.31184,579.73601 518.91176,812.59829 l 5.37597,6.30066 c 54.14996,33.17496 105.95006,33.17484 155.62501,-0.22522 l 4.70032,-5.37598 C 794.52546,578.56056 962.57526,473.69899 1188.75,498.92396 l 655.7868,296.1493 10.7758,-23.34961 -657.4256,-296.85059 -3.75,-0.92468 c -29.7937,-3.5625 -58.6358,-4.9867 -86.5247,-4.27185 z m -20.6341,131.25549 c -24.5311,-0.0954 -49.5118,2.42149 -74.9414,7.5293 -58.37497,11.44999 -110.62486,36.8994 -156.33731,76.84937 -45.69997,39.69997 -76.40001,89.45032 -91.87501,149.00025 h 76.87501 c 36.09996,-88.51242 94.46236,-144.79998 175.08731,-168.38746 85.0749,-25.22497 186.3259,-11.45086 304.2132,41.5741 -40.5499,-46.48747 -87.425,-77.54887 -140.625,-93.19886 -30.0585,-8.80311 -60.8568,-13.24398 -92.3968,-13.3667 z" style="fill:#0000ff;stroke-width:12.5"/>
  <path id="path4" inkscape:label="l4" d="m 1004.3006,10.098267 c -42.66247,0 -81.10013,9.79979 -115.31254,29.412232 -14.58095,8.462255 -28.24965,18.406956 -40.78857,29.675904 -7.94867,7.597675 -15.8639,15.215958 -22.96143,23.336793 -14.86042,16.915824 -26.96317,36.067304 -35.86304,56.749884 -6.85249,16.03455 -11.80679,32.8154 -14.76196,50.00061 -2.09982,12.96805 -3.12014,26.08806 -3.05054,39.22485 0,13.54997 0.93804,26.62391 3.05054,39.47388 6.78747,40.87488 24.83626,77.53823 53.67371,110.00061 C 729.61194,438.66043 649.68793,515.73556 588.98805,619.67287 517.86647,529.21121 436.92292,468.10153 346.42091,436.51429 l 384.36585,-1.11694 V 409.6985 l -537.37794,1.875 v 0.0146 C 130.97248,411.3925 68.536324,420.48917 5.8630373,439.35975 l 7.4999997,24.75037 C 77.112921,445.19766 125.3876,436.09757 158.4375,436.56007 l 61.41175,0.70129 33.03772,3.27393 c 126.33725,17.51247 235.31268,87.58732 327.18751,210.19959 l 12.42554,16.81275 9.61303,-18.44971 c 64.55722,-116.64245 152.8306,-199.92313 264.51966,-250.27039 5.58149,-2.51798 11.20565,-4.97653 16.9043,-7.32972 7.42283,-3.06107 14.96157,-5.95959 22.58423,-8.73962 5.31075,-1.94081 10.64357,-3.85134 16.05103,-5.65613 8.53821,-2.84254 17.21909,-5.48464 25.99914,-7.98706 4.4686,-1.27777 8.91975,-2.58039 13.45093,-3.77014 10.1616,-2.65841 20.51758,-5.04486 30.99426,-7.26013 3.70874,-0.78774 7.3846,-1.62259 11.1328,-2.35474 11.7271,-2.27967 23.6762,-4.24604 35.7898,-5.98206 2.717,-0.39166 5.3971,-0.8351 8.1336,-1.19934 13.3664,-1.76825 26.9818,-3.18737 40.8123,-4.30298 1.7056,-0.13865 3.3795,-0.32358 5.0922,-0.45227 14.9881,-1.11708 30.2476,-1.85143 45.7764,-2.20825 0.7161,-0.0167 1.4159,-0.0563 2.1331,-0.0714 16.3953,-0.33915 33.0796,-0.27137 50.0757,0.23438 l 606.8006,262.52564 c -27.8875,39.47492 -30.4753,75.67362 -7.7381,108.83606 -10.5498,-57.44989 9.1376,-88.52409 59.0626,-93.42407 13.8248,-3.0375 15.937,-8.63829 6.3244,-17.05079 l -601.875,-261.58631 -17.3547,-7.49817 -0.022,-0.009 -16.7487,-6.94885 0.075,-0.12818 5.9253,-15.7782 c 7.5,-22.42491 11.25,-46.48727 11.25,-72.17468 v -9.81262 l -3.75,-32.92603 c -3.8846,-21.86199 -11.1597,-42.98328 -21.5625,-62.6001 -11,-20.31244 -25.312,-38.999174 -42.887,-56.286622 l -8.9117,-8.413696 c -43.825,-38.999888 -95.6255,-58.374025 -155.8502,-58.374025 z m -29.71439,33.953248 c 4.52659,-0.0148 9.11906,0.109204 13.77685,0.371704 53.89994,3.037489 101.24894,23.586643 142.02394,62.124021 l 4.4513,3.97522 v -0.0238 c 20.875,20.78744 36.7992,43.22409 48.2867,67.74903 11.0125,23.81241 17.1125,49.27543 18.75,76.60034 1.4125,22.18744 -0.4625,42.75038 -5.625,61.88782 l -1.6369,-0.46326 c -33.5232,-1.10855 -67.0807,-0.5659 -100.5506,1.62598 -56.012,3.98745 -108.51219,12.86216 -157.26194,27.09961 l -10.08728,3.03772 c -1.1625,0.24998 -2.10077,0.7 -3.27575,0.9375 -21.27282,6.62812 -42.1629,14.42751 -62.57447,23.36243 -39.14988,-40.17488 -60.23727,-86.88788 -63.52478,-139.91273 -1.625,-30.58742 2.82404,-58.37511 13.37402,-83.15002 6.74877,-15.66124 15.91909,-30.16348 27.17469,-42.97486 8.15386,-9.473263 16.63983,-17.823705 25.55053,-24.737549 7.96154,-6.409449 16.51728,-12.043593 25.55054,-16.825562 25.42963,-13.682771 53.91195,-20.579974 85.59815,-20.683594 z M 102.88697,195.52369 C 74.537003,195.28622 50.387491,204.39778 30.000001,223.32276 10.074991,242.23525 0,264.87355 0,291.28602 c 0,26.38747 10.074991,48.81122 30.000001,67.73621 20.38749,18.91248 44.537002,28.25134 72.886969,28.25134 h 1.41357 c 24.13749,-0.4625 44.52447,-9.80136 61.63696,-28.25134 a 115.32501,115.32501 0 0 0 13.82447,-18.44971 l -3.04871,-3.03772 -10.77576,12.3761 c -15.23749,15.18748 -33.27556,23.58689 -54.61303,24.99939 l -6.5625,0.22522 c -19.687451,0 -36.32395,-8.41213 -50.148931,-25.22461 -13.837493,-16.5875 -20.625001,-36.8999 -20.625001,-60.49988 0,-23.58748 6.787508,-43.67511 20.625001,-60.7251 C 68.43802,212.09844 85.312512,203.6847 105,203.6847 c 19.44997,0 36.32577,8.41374 50.15076,25.00122 a 90.412507,90.412507 0 0 1 15.24902,26.87439 l 6.54969,0.46326 -6.08643,-60.26368 h -2.58728 c -3.03751,7 -8.43772,10.75035 -16.16272,10.97535 -14.76249,-7.475 -31.17606,-11.21155 -49.22607,-11.21155 z m 146.95129,0 -7.02575,14.01123 h -0.23804 l -76.39893,162.56287 0.46143,0.23804 c -5.15001,3.26249 -11.24872,5.37512 -18.04871,6.06262 v 5.61218 h 62.34925 v -5.61218 c -16.87499,-2.09999 -24.6125,-7.00079 -23.4375,-15.17578 l 19.92553,-42.2754 h 78.27393 l 17.11304,35.96375 c 2.1125,11.91249 -4.68698,19.16189 -20.38697,21.24939 v 5.85022 h 77.33643 v -5.8374 h -0.46142 c -7.5,-1.6375 -13.83752,-4.43741 -18.75,-8.6499 L 257.11304,195.52369 Z m 108.98621,2.10022 v 5.8374 h 1.6388 c 17.58748,0.475 26.72478,8.1744 26.96228,23.12439 v 122.86194 c -1.6375,18.44998 -9.15002,28.02559 -22.5,28.72559 h -2.8125 v 5.59936 h 69.375 v -5.59936 c -21.33748,-1.175 -32.1138,-7.25079 -32.5763,-17.98828 V 230.56092 l 78.03773,153.44971 4.92553,-0.46326 77.57447,-156.24939 v 134.75098 c -0.7,6.54999 -4.91121,10.98731 -12.42371,13.54981 l -16.62598,2.57446 v 5.59936 h 79.67469 v -5.59936 h -2.8125 c -8.89999,-0.475 -15.2375,-4.91307 -18.75,-13.07556 l -0.69946,-1.17371 V 213.97339 l 0.69946,-0.9375 c 3.98749,-6.06249 11.72479,-9.33708 23.21228,-9.57458 h 1.875 v -5.8374 h -55.54871 l -71.02478,143.41187 -71.9513,-143.41187 z m 255.47608,0 v 5.8374 h 1.875 c 11.24999,0.23748 18.98697,3.49959 23.19947,9.57458 l 0.47424,0.9375 v 149.95057 l -0.24902,1.17371 h -0.22522 c -3.5125,8.16249 -9.84947,12.60056 -18.51197,13.07556 h -3.28857 v 5.59936 h 79.6875 v -5.59936 l -16.63696,-2.57446 c -7.5,-2.5625 -11.4875,-7.00133 -12.1875,-13.53882 v -47.43714 h -0.23804 V 296.1731 l 12.1875,3.03772 22.03858,3.03772 c 17.11249,0 31.87501,-5.13883 44.0625,-15.41382 12.18749,-10.04999 18.27392,-22.42442 18.27392,-36.89941 0,-14.48749 -6.08643,-26.86245 -18.27392,-37.13745 v 0.0128 C 734.30057,202.52318 719.53805,197.3989 702.42556,197.6239 Z m 71.02479,10.51208 a 44.812506,44.812506 0 0 1 32.10022,12.14905 c 8.89999,8.17499 13.3612,18.2131 13.3612,29.66309 0,11.67499 -4.46153,21.48809 -13.37402,29.66308 -8.89999,8.175 -19.67522,12.13677 -32.10022,12.37427 a 55.725004,55.725004 0 0 1 -17.11304,-3.03772 v -77.99927 -0.0128 z m -439.23708,30.36255 34.69849,72.63611 h -68.67371 z m 926.73524,468.71339 c -3.5759,-0.014 -7.2545,0.081 -11.0357,0.28565 -30.225,1.4 -58.8133,7.47473 -85.7758,18.44971 -26.95,10.75 -52.725,26.15163 -77.81251,46.00158 -25.07497,20.09998 -39.37522,41.12383 -42.41272,62.83631 h 74.75093 c 34,-70.29995 101.5002,-107.43735 202.5001,-111.41236 -15.1703,-10.62028 -35.183,-16.06313 -60.2143,-16.16089 z" style="fill:#008000;stroke-width:12.5"/>
 </g>
</svg>
